<?xml version="1.0" standalone="no"?>
<!DOCTYPE svg PUBLIC "-//W3C//DTD SVG 20010904//EN"
 "http://www.w3.org/TR/2001/REC-SVG-20010904/DTD/svg10.dtd">
<svg version="1.0" xmlns="http://www.w3.org/2000/svg"
 width="1776.000000pt" height="2250.000000pt" viewBox="0 0 1776.000000 2250.000000"
 preserveAspectRatio="xMidYMid meet">
<metadata>
Created by potrace 1.15, written by Peter Selinger 2001-2017
</metadata>
<g transform="translate(0.000000,2250.000000) scale(0.100000,-0.100000)"
fill="#FFFFFF" stroke="none">
<path d="M0 22229 c0 -249 2 -281 25 -394 185 -915 806 -1601 1770 -1958 211
-77 310 -107 637 -186 585 -143 918 -263 1262 -455 446 -250 715 -520 966
-971 195 -348 247 -547 300 -1135 35 -386 74 -603 152 -848 194 -607 488
-1047 923 -1378 306 -233 646 -398 1045 -507 168 -47 255 -68 920 -222 755
-175 1055 -267 1342 -410 123 -62 208 -120 336 -230 381 -327 552 -642 552
-1014 0 -139 -43 -440 -72 -500 -23 -48 -86 -94 -153 -112 -48 -14 -170 -5
-238 16 -190 58 -338 209 -523 533 -121 213 -224 316 -599 597 -126 95 -272
209 -323 254 -253 220 -469 309 -886 366 -105 14 -279 40 -386 57 -250 40
-388 42 -474 9 -76 -30 -134 -89 -176 -176 -39 -81 -105 -340 -122 -473 -39
-317 124 -916 333 -1217 96 -139 240 -254 443 -351 207 -99 398 -158 846 -258
420 -95 462 -109 533 -179 53 -54 71 -101 75 -199 7 -158 -54 -317 -261 -680
-58 -103 -138 -251 -177 -328 -159 -318 -287 -481 -756 -965 -288 -297 -390
-406 -645 -690 -324 -360 -540 -535 -836 -677 -250 -120 -501 -185 -823 -215
-303 -28 -608 -5 -1175 87 -247 40 -419 79 -1137 259 -784 197 -1021 247
-1428 302 -190 25 -617 38 -673 20 -85 -28 -131 -114 -131 -241 1 -74 7 -107
53 -255 317 -1027 769 -1964 1364 -2825 628 -907 1392 -1702 2272 -2361 518
-388 1001 -685 1592 -977 753 -372 1512 -634 2398 -828 315 -69 499 -45 706
91 205 135 383 374 676 910 467 853 698 1483 778 2120 26 212 35 402 36 755 1
482 16 990 34 1150 42 381 130 780 262 1200 66 210 103 293 188 421 148 222
380 404 617 483 40 14 121 32 179 40 192 29 374 18 739 -44 217 -37 423 -60
535 -60 194 0 428 44 855 161 532 145 729 166 1010 104 63 -14 158 -35 210
-47 127 -28 310 -30 394 -4 155 47 277 138 415 311 30 39 109 126 175 195 142
150 213 236 254 310 37 67 88 226 102 318 28 178 -46 333 -252 527 -209 196
-445 352 -963 633 -137 74 -313 171 -390 214 -188 107 -332 176 -635 306 -409
176 -528 230 -650 294 -410 217 -631 415 -760 682 -57 117 -86 221 -101 361
-14 127 -9 194 47 638 41 327 45 376 41 507 -10 266 -72 501 -204 764 -103
206 -210 308 -437 417 -135 64 -268 107 -591 189 -622 159 -1016 290 -1304
435 -212 106 -414 260 -558 425 -291 334 -470 762 -537 1285 -50 385 -36 924
34 1310 108 597 -77 994 -490 1054 -41 5 -151 15 -245 21 -864 55 -1503 304
-1896 737 -315 348 -524 837 -669 1570 -39 199 -57 247 -102 273 -36 20 -72 0
-93 -52 -38 -95 -62 -483 -46 -739 30 -475 126 -785 340 -1105 352 -525 785
-894 1330 -1133 160 -70 303 -120 576 -202 234 -70 299 -99 321 -140 18 -35
12 -121 -36 -494 -46 -362 -53 -495 -47 -839 8 -470 50 -797 144 -1121 45
-158 139 -376 210 -488 13 -21 22 -41 19 -44 -11 -11 -623 141 -955 238 -282
82 -509 180 -730 316 -343 211 -557 425 -651 650 -67 161 -85 273 -105 653
-25 472 -52 677 -126 980 -123 500 -359 921 -734 1309 -346 358 -782 640
-1320 854 -258 103 -433 155 -810 242 -785 182 -1091 281 -1435 461 -111 59
-325 196 -413 265 -361 284 -646 646 -884 1123 -91 183 -102 196 -160 196
l-43 0 0 -271z"/>
</g>
</svg>
